<svg version="1.1" xmlns="http://www.w3.org/2000/svg" xmlns:xlink="http://www.w3.org/1999/xlink" width="56" height="46"><defs/><g><path fill="rgb(0,0,0)" stroke="none" paint-order="stroke fill markers" fill-rule="evenodd" d=" M 53.31017303466797 41.6112916469574 C 53.31017303466797 41.6112916469574 2.6907806396484375 41.6112916469574 2.6907806396484375 41.6112916469574 C 1.7593460083007812 41.6112916469574 1.0033493041992188 42.369062185287476 1.0033493041992188 43.30381202697754 C 1.0033493041992188 44.23731553554535 1.7593460083007812 44.99508607387543 2.6907806396484375 44.99508607387543 C 2.6907806396484375 44.99508607387543 53.31017303466797 44.99508607387543 53.31017303466797 44.99508607387543 C 54.24195098876953 44.99508607387543 54.99840545654297 44.23731553554535 54.99840545654297 43.30381202697754 C 54.99840545654297 42.369062185287476 54.24195098876953 41.6112916469574 53.31017303466797 41.6112916469574 Z M 29.68750762939453 7.771270155906677 C 29.68750762939453 7.771270155906677 29.68750762939453 4.387060284614563 29.68750762939453 4.387060284614563 C 29.68750762939453 4.387060284614563 33.062599182128906 4.387060284614563 33.062599182128906 4.387060284614563 C 33.99357604980469 4.387060284614563 34.750144958496094 3.629289746284485 34.750144958496094 2.6945399045944214 C 34.750144958496094 1.7610363960266113 33.99357604980469 1.0032658576965332 33.062599182128906 1.0032658576965332 C 33.062599182128906 1.0032658576965332 22.938812255859375 1.0032658576965332 22.938812255859375 1.0032658576965332 C 22.00737762451172 1.0032658576965332 21.251266479492188 1.7610363960266113 21.251266479492188 2.6945399045944214 C 21.251266479492188 3.629289746284485 22.00737762451172 4.387060284614563 22.938812255859375 4.387060284614563 C 22.938812255859375 4.387060284614563 26.313560485839844 4.387060284614563 26.313560485839844 4.387060284614563 C 26.313560485839844 4.387060284614563 26.301429748535156 7.910028576850891 26.313560485839844 7.771270155906677 C 12.193840026855469 8.649104118347168 1.0033493041992188 20.462680339813232 1.0033493041992188 34.84328734874725 C 1.0033493041992188 36.217161893844604 1.0033493041992188 35.60105788707733 1.0033493041992188 36.53539228439331 C 1.0033493041992188 37.469311237335205 1.7593460083007812 38.22708177566528 2.6907806396484375 38.22708177566528 C 2.6907806396484375 38.22708177566528 53.31017303466797 38.22708177566528 53.31017303466797 38.22708177566528 C 54.24195098876953 38.22708177566528 54.99840545654297 37.469311237335205 54.99840545654297 36.53539228439331 C 54.99840545654297 35.60105788707733 54.99840545654297 36.323931097984314 54.99840545654297 34.84328734874725 C 54.99840545654297 20.462680339813232 43.80757141113281 8.649104118347168 29.68750762939453 7.771270155906677 Z M 4.377983093261719 34.84328734874725 C 4.377983093261719 21.76094400882721 14.954154968261719 11.155064582824707 28.000648498535156 11.155064582824707 C 41.04771423339844 11.155064582824707 51.623313903808594 21.76094400882721 51.623313903808594 34.84328734874725 C 51.623313903808594 34.84328734874725 4.377983093261719 34.84328734874725 4.377983093261719 34.84328734874725 Z"/></g></svg>