<svg version="1.1" xmlns="http://www.w3.org/2000/svg" xmlns:xlink="http://www.w3.org/1999/xlink" width="51" height="47"><defs/><g><path fill="rgb(0,0,0)" stroke="none" paint-order="stroke fill markers" fill-rule="evenodd" d=" M 48.04334259033203 44.74875295162201 C 48.04334259033203 45.43963694572449 47.490821838378906 45.999655961990356 46.809326171875 45.999655961990356 C 46.809326171875 45.999655961990356 3.23388671875 45.999655961990356 3.23388671875 45.999655961990356 C 2.5525054931640625 45.999655961990356 1.9999847412109375 45.43963694572449 1.9999847412109375 44.74875295162201 C 1.9999847412109375 44.05786895751953 2.5525054931640625 43.49784994125366 3.23388671875 43.49784994125366 C 3.23388671875 43.49784994125366 46.809326171875 43.49784994125366 46.809326171875 43.49784994125366 C 47.490821838378906 43.49784994125366 48.04334259033203 44.05786895751953 48.04334259033203 44.74875295162201 Z M 23.7691650390625 24.21292209625244 C 24.006973266601562 24.438092947006226 24.309097290039062 24.549432039260864 24.610877990722656 24.549432039260864 C 24.94092559814453 24.549432039260864 25.270286560058594 24.41607439517975 25.51335906982422 24.151851773262024 C 25.97821807861328 23.646671414375305 25.951324462890625 22.855249881744385 25.453048706054688 22.38372051715851 C 23.337493896484375 20.38210952281952 23.79010772705078 16.314078211784363 25.608230590820312 14.014178156852722 C 28.075119018554688 10.893775463104248 28.618141174316406 5.330559849739075 25.45293426513672 2.3368676900863647 C 24.95477294921875 1.8657537698745728 24.17371368408203 1.893173098564148 23.708740234375 2.3983534574508667 C 23.243881225585938 2.9035338163375854 23.27100372314453 3.6953707933425903 23.769393920898438 4.166484713554382 C 25.6697998046875 5.963697075843811 25.627456665039062 9.988937616348267 23.682418823242188 12.449614644050598 C 22.40399932861328 14.06693959236145 21.639877319335938 16.234312891960144 21.585861206054688 18.39628541469574 C 21.526466369628906 20.75933301448822 22.302032470703125 22.82492244243622 23.7691650390625 24.21292209625244 Z M 49.99993896484375 21.614317536354065 C 49.99993896484375 21.614317536354065 49.99993896484375 24.014339685440063 49.99993896484375 24.014339685440063 C 49.99993896484375 27.45463454723358 47.23939514160156 30.25306785106659 43.84587860107422 30.25306785106659 C 43.84587860107422 30.25306785106659 41.091285705566406 30.25306785106659 41.091285705566406 30.25306785106659 C 39.22132110595703 35.523810625076294 34.24016571044922 39.30393898487091 28.405052185058594 39.30393898487091 C 28.405052185058594 39.30393898487091 21.63861846923828 39.30393898487091 21.63861846923828 39.30393898487091 C 14.207855224609375 39.30393898487091 8.162513732910156 33.17530357837677 8.162513732910156 25.642466187477112 C 8.162513732910156 25.642466187477112 8.162513732910156 13.23189640045166 8.162513732910156 13.23189640045166 C 8.162513732910156 12.541012406349182 8.715034484863281 11.980993390083313 9.396530151367188 11.980993390083313 C 9.396530151367188 11.980993390083313 17.31183624267578 11.980993390083313 17.31183624267578 11.980993390083313 C 18.918472290039062 9.504944920539856 18.846603393554688 5.853604316711426 17.06281280517578 4.166484713554382 C 16.564651489257812 3.694955348968506 16.537643432617188 2.9035338163375854 17.00250244140625 2.3983534574508667 C 17.46747589111328 1.893173098564148 18.24842071533203 1.8657537698745728 18.74658203125 2.337283134460449 C 21.910987854003906 5.330559849739075 21.368194580078125 10.893775463104248 18.901992797851562 14.014178156852722 C 17.08318328857422 16.314493656158447 16.630455017089844 20.382524967193604 18.74658203125 22.38372051715851 C 19.244857788085938 22.855249881744385 19.27198028564453 23.646671414375305 18.80712127685547 24.151851773262024 C 18.342147827148438 24.657032132148743 17.561203002929688 24.684451460838318 17.06292724609375 24.213337540626526 C 15.595451354980469 22.82492244243622 14.81988525390625 20.75933301448822 14.878936767578125 18.39628541469574 C 14.912696838378906 17.04941475391388 15.222145080566406 15.700051426887512 15.760017395019531 14.482799410820007 C 15.760017395019531 14.482799410820007 10.63043212890625 14.482799410820007 10.63043212890625 14.482799410820007 C 10.63043212890625 14.482799410820007 10.63043212890625 25.642466187477112 10.63043212890625 25.642466187477112 C 10.63043212890625 31.79602825641632 15.56878662109375 36.80171751976013 21.63861846923828 36.80171751976013 C 21.63861846923828 36.80171751976013 28.405052185058594 36.80171751976013 28.405052185058594 36.80171751976013 C 34.474884033203125 36.80171751976013 39.413238525390625 31.795612812042236 39.413238525390625 25.642466187477112 C 39.413238525390625 25.642466187477112 39.413238525390625 14.482799410820007 39.413238525390625 14.482799410820007 C 39.413238525390625 14.482799410820007 30.13494110107422 14.482799410820007 30.13494110107422 14.482799410820007 C 29.453445434570312 14.482799410820007 28.900924682617188 13.922780394554138 28.900924682617188 13.23189640045166 C 28.900924682617188 12.541012406349182 29.453445434570312 11.980993390083313 30.13494110107422 11.980993390083313 C 30.13494110107422 11.980993390083313 40.647254943847656 11.980993390083313 40.647254943847656 11.980993390083313 C 41.328636169433594 11.980993390083313 41.88115692138672 12.541012406349182 41.88115692138672 13.23189640045166 C 41.88115692138672 13.23189640045166 41.88115692138672 15.375173926353455 41.88115692138672 15.375173926353455 C 41.88115692138672 15.375173926353455 43.84599304199219 15.375173926353455 43.84599304199219 15.375173926353455 C 47.239166259765625 15.375173926353455 49.99993896484375 18.174022674560547 49.99993896484375 21.614317536354065 Z M 47.53190612792969 21.614317536354065 C 47.53190612792969 19.55371344089508 45.87834930419922 17.87697994709015 43.84587860107422 17.87697994709015 C 43.84587860107422 17.87697994709015 41.88104248046875 17.87697994709015 41.88104248046875 17.87697994709015 C 41.88104248046875 17.87697994709015 41.88104248046875 27.751261830329895 41.88104248046875 27.751261830329895 C 41.88104248046875 27.751261830329895 43.84587860107422 27.751261830329895 43.84587860107422 27.751261830329895 C 45.87834930419922 27.751261830329895 47.53190612792969 26.074943780899048 47.53190612792969 24.014339685440063 C 47.53190612792969 24.014339685440063 47.53190612792969 21.614317536354065 47.53190612792969 21.614317536354065 Z"/></g></svg>