<svg version="1.1" xmlns="http://www.w3.org/2000/svg" xmlns:xlink="http://www.w3.org/1999/xlink" width="55" height="38"><defs/><g><path fill="rgb(0,0,0)" stroke="none" paint-order="stroke fill markers" fill-rule="evenodd" d=" M 9.999740600585938 14.245110750198364 C 11.002243041992188 12.186999320983887 13.474510192871094 10.63697636127472 15.741928100585938 10.63697636127472 C 15.741928100585938 10.63697636127472 41.94866943359375 10.63697636127472 41.94866943359375 10.63697636127472 C 41.94866943359375 10.63697636127472 41.94866943359375 8.983092308044434 41.94866943359375 8.983092308044434 C 41.94866943359375 7.618772983551025 40.84168243408203 6.5008121728897095 39.49127960205078 6.5008121728897095 C 39.49127960205078 6.5008121728897095 28.674781799316406 6.5008121728897095 28.674781799316406 6.5008121728897095 C 28.674781799316406 6.5008121728897095 28.674781799316406 5.0575584173202515 28.674781799316406 5.0575584173202515 C 28.674781799316406 3.0015242099761963 27.019508361816406 1.334761381149292 24.990928649902344 1.334761381149292 C 24.990928649902344 1.334761381149292 18.70056915283203 1.334761381149292 18.70056915283203 1.334761381149292 C 17.717063903808594 1.334761381149292 16.793411254882812 1.7227864265441895 16.093719482421875 2.4302881956100464 C 15.394142150878906 3.134881854057312 15.012367248535156 4.0625691413879395 15.012367248535156 5.0575584173202515 C 15.012367248535156 5.0575584173202515 15.012367248535156 6.502473950386047 15.012367248535156 6.502473950386047 C 15.012367248535156 6.502473950386047 4.195640563964844 6.502473950386047 4.195640563964844 6.502473950386047 C 2.843292236328125 6.5008121728897095 1.7384796142578125 7.618772983551025 1.7384796142578125 8.983092308044434 C 1.7384796142578125 8.983092308044434 1.7384796142578125 31.147465109825134 1.7384796142578125 31.147465109825134 C 1.7384796142578125 31.147465109825134 9.999740600585938 14.245110750198364 9.999740600585938 14.245110750198364 Z M 17.469642639160156 5.0575584173202515 C 17.469642639160156 4.7297728061676025 17.60205078125 4.417358636856079 17.832191467285156 4.1830480098724365 C 18.06267547607422 3.9449983835220337 18.37200927734375 3.8153797388076782 18.698280334472656 3.8153797388076782 C 18.698280334472656 3.8153797388076782 24.98863983154297 3.8153797388076782 24.98863983154297 3.8153797388076782 C 25.66693115234375 3.8153797388076782 26.217391967773438 4.369997978210449 26.217391967773438 5.0575584173202515 C 26.217391967773438 5.0575584173202515 26.217391967773438 6.502473950386047 26.217391967773438 6.502473950386047 C 26.217391967773438 6.502473950386047 17.469642639160156 6.502473950386047 17.469642639160156 6.502473950386047 C 17.469642639160156 6.502473950386047 17.469642639160156 5.0575584173202515 17.469642639160156 5.0575584173202515 Z M 42.921302795410156 34.762662053108215 C 42.326324462890625 35.984068512916565 40.72850036621094 36.983627676963806 39.378440856933594 36.983627676963806 C 39.378440856933594 36.983627676963806 4.080284118652344 36.983627676963806 4.080284118652344 36.983627676963806 C 2.730224609375 36.983627676963806 2.1116714477539062 35.98157584667206 2.71099853515625 34.762662053108215 C 2.71099853515625 34.762662053108215 12.20318603515625 15.340637564659119 12.20318603515625 15.340637564659119 C 12.796218872070312 14.117569327354431 14.391525268554688 13.115102052688599 15.741928100585938 13.115102052688599 C 15.741928100585938 13.115102052688599 51.03974151611328 13.115102052688599 51.03974151611328 13.115102052688599 C 52.394378662109375 13.115102052688599 53.008583068847656 14.117569327354431 52.41143035888672 15.340637564659119 C 52.41143035888672 15.340637564659119 42.921302795410156 34.762662053108215 42.921302795410156 34.762662053108215 Z"/></g></svg>