<svg version="1.1" xmlns="http://www.w3.org/2000/svg" xmlns:xlink="http://www.w3.org/1999/xlink" width="46" height="46"><defs/><g><path fill="rgb(0,0,0)" stroke="none" paint-order="stroke fill markers" fill-rule="evenodd" d=" M 44.927093505859375 22.849997758865356 C 44.927093505859375 21.229764699935913 43.760597229003906 19.500685214996338 42.321617126464844 18.993012189865112 C 40.88172149658203 18.483261942863464 39.486572265625 17.23526704311371 39.081336975097656 16.25066387653351 C 38.67530059814453 15.2689688205719 38.78070068359375 13.395730137825012 39.43644714355469 12.016870260238647 C 40.09242248535156 10.637594938278198 39.694969177246094 8.590700507164001 38.549644470214844 7.4428277015686035 C 37.404205322265625 6.2966166734695435 35.35685729980469 5.90152907371521 33.97669982910156 6.557515740394592 C 32.59745788574219 7.2143332958221436 30.72692108154297 7.3215179443359375 29.745819091796875 6.914797902107239 C 28.76494598388672 6.509739637374878 27.517425537109375 5.112184762954712 27.00507354736328 3.6730854511260986 C 26.493408203125 2.2339861392974854 24.76386260986328 1.0670028924942017 23.143722534179688 1.0670028924942017 C 21.52312469482422 1.0670028924942017 19.794151306152344 2.2339861392974854 19.282028198242188 3.6730854511260986 C 18.77013397216797 5.112184762954712 17.52215576171875 6.508908748626709 16.541282653808594 6.914797902107239 C 15.559722900390625 7.3215179443359375 13.689643859863281 7.2143332958221436 12.310401916503906 6.557515740394592 C 10.931503295898438 5.90152907371521 8.883354187011719 6.2966166734695435 7.737457275390625 7.4428277015686035 C 6.591789245605469 8.590700507164001 6.194793701171875 10.637594938278198 6.850883483886719 12.016870260238647 C 7.5072021484375 13.396561026573181 7.611457824707031 15.266476154327393 7.2039337158203125 16.24983298778534 C 6.7960662841796875 17.23152804374695 5.4053802490234375 18.483261942863464 3.9660568237304688 18.993012189865112 C 2.5263900756835938 19.500685214996338 1.359893798828125 21.229764699935913 1.359893798828125 22.849997758865356 C 1.359893798828125 24.470646262168884 2.5263900756835938 26.19889485836029 3.9660568237304688 26.71072232723236 C 5.4053802490234375 27.222965240478516 6.7978973388671875 28.474283695220947 7.2057647705078125 29.453901529312134 C 7.6136322021484375 30.43435025215149 7.5072021484375 32.3042653799057 6.850883483886719 33.683125257492065 C 6.194793701171875 35.061569690704346 6.591789245605469 37.109710454940796 7.737457275390625 38.25509059429169 C 8.883354187011719 39.402132511138916 10.930244445800781 39.79929733276367 12.310401916503906 39.14247977733612 C 13.690444946289062 38.48649311065674 15.559722900390625 38.38097023963928 16.541282653808594 38.788936614990234 C 17.52318572998047 39.19607210159302 18.77013397216797 40.59404242038727 19.282028198242188 42.03231084346771 C 19.794151306152344 43.46808660030365 21.52312469482422 44.633408069610596 23.143722534179688 44.633408069610596 C 24.76386260986328 44.633408069610596 26.493408203125 43.46808660030365 27.00507354736328 42.03231084346771 C 27.517425537109375 40.59404242038727 28.76311492919922 39.1964875459671 29.744216918945312 38.78602850437164 C 30.725204467773438 38.37806212902069 32.59745788574219 38.48649311065674 33.97669982910156 39.14247977733612 C 35.35594177246094 39.79929733276367 37.404205322265625 39.402132511138916 38.549644470214844 38.25509059429169 C 39.694969177246094 37.109710454940796 40.09242248535156 35.061569690704346 39.43644714355469 33.683125257492065 C 38.78070068359375 32.303849935531616 38.67346954345703 30.433103919029236 39.078704833984375 29.453070640563965 C 39.48485565185547 28.47179102897644 40.88172149658203 27.222965240478516 42.321617126464844 26.71072232723236 C 43.760597229003906 26.19889485836029 44.927093505859375 24.470646262168884 44.927093505859375 22.849997758865356 Z M 23.143722534179688 30.841901183128357 C 18.724014282226562 30.841901183128357 15.150138854980469 27.270325899124146 15.150138854980469 22.85872209072113 C 15.150138854980469 18.44005572795868 18.724014282226562 14.865156888961792 23.143722534179688 14.865156888961792 C 27.55438995361328 14.865156888961792 31.1278076171875 18.44005572795868 31.1278076171875 22.85872209072113 C 31.1278076171875 27.270325899124146 27.55438995361328 30.841901183128357 23.143722534179688 30.841901183128357 Z"/></g></svg>