<svg version="1.1" xmlns="http://www.w3.org/2000/svg" xmlns:xlink="http://www.w3.org/1999/xlink" width="7" height="12"><defs/><g><path fill="rgb(0,0,0)" stroke="none" paint-order="stroke fill markers" fill-rule="evenodd" d=" M 1.9514236450195312 9.814954996109009 C 1.9514236450195312 9.814954996109009 5.7855377197265625 6.34765625 5.7855377197265625 6.34765625 C 5.9988555908203125 6.155305504798889 5.9988555908203125 5.841229557991028 5.7855377197265625 5.6484633684158325 C 5.7855377197265625 5.6484633684158325 5.7649383544921875 5.636830925941467 5.7649383544921875 5.636830925941467 C 5.7649383544921875 5.636830925941467 1.9514236450195312 2.177841067314148 1.9514236450195312 2.177841067314148 C 1.7370758056640625 1.9850748777389526 1.3882598876953125 1.9850748777389526 1.1740264892578125 2.177841067314148 C 1.1740264892578125 2.177841067314148 1.1700210571289062 2.1844881772994995 1.1700210571289062 2.1844881772994995 C 1.0678253173828125 2.273808717727661 1.0027084350585938 2.398442029953003 1.0027084350585938 2.5376158952713013 C 1.0027084350585938 2.5376158952713013 1.0027084350585938 9.455180168151855 1.0027084350585938 9.455180168151855 C 1.0027084350585938 9.59684669971466 1.07080078125 9.723557233810425 1.1759719848632812 9.81412410736084 C 1.1759719848632812 9.81412410736084 1.1740264892578125 9.814954996109009 1.1740264892578125 9.814954996109009 C 1.3897476196289062 10.008136630058289 1.7370758056640625 10.008136630058289 1.9514236450195312 9.814954996109009 Z"/></g></svg>