<svg version="1.1" xmlns="http://www.w3.org/2000/svg" xmlns:xlink="http://www.w3.org/1999/xlink" width="46" height="42"><defs/><g><path fill="rgb(0,0,0)" stroke="none" paint-order="stroke fill markers" fill-rule="evenodd" d=" M 22.850509643554688 1.105512261390686 C 22.850509643554688 1.105512261390686 1.4135513305664062 12.665667414665222 1.4135513305664062 12.665667414665222 C 1.4135513305664062 12.665667414665222 22.850509643554688 24.22706890106201 22.850509643554688 24.22706890106201 C 22.850509643554688 24.22706890106201 44.287353515625 12.665667414665222 44.287353515625 12.665667414665222 C 44.287353515625 12.665667414665222 22.850509643554688 1.105512261390686 22.850509643554688 1.105512261390686 Z M 22.850509643554688 27.957759380340576 C 22.850509643554688 27.957759380340576 5.3987274169921875 18.54794430732727 5.3987274169921875 18.54794430732727 C 5.3987274169921875 18.54794430732727 1.4135513305664062 20.696622610092163 1.4135513305664062 20.696622610092163 C 1.4135513305664062 20.696622610092163 22.850509643554688 32.25345420837402 22.850509643554688 32.25345420837402 C 22.850509643554688 32.25345420837402 44.287353515625 20.696622610092163 44.287353515625 20.696622610092163 C 44.287353515625 20.696622610092163 40.30229187011719 18.54794430732727 40.30229187011719 18.54794430732727 C 40.30229187011719 18.54794430732727 22.850509643554688 27.957759380340576 22.850509643554688 27.957759380340576 Z M 22.850509643554688 35.98456013202667 C 22.850509643554688 35.98456013202667 5.3987274169921875 26.57308328151703 5.3987274169921875 26.57308328151703 C 5.3987274169921875 26.57308328151703 1.4135513305664062 28.720515251159668 1.4135513305664062 28.720515251159668 C 1.4135513305664062 28.720515251159668 22.850509643554688 40.28316307067871 22.850509643554688 40.28316307067871 C 22.850509643554688 40.28316307067871 44.287353515625 28.720515251159668 44.287353515625 28.720515251159668 C 44.287353515625 28.720515251159668 40.30229187011719 26.57308328151703 40.30229187011719 26.57308328151703 C 40.30229187011719 26.57308328151703 22.850509643554688 35.98456013202667 22.850509643554688 35.98456013202667 Z"/></g></svg>