<svg version="1.1" xmlns="http://www.w3.org/2000/svg" xmlns:xlink="http://www.w3.org/1999/xlink" width="80" height="76"><defs/><g><path fill="rgb(0,0,0)" stroke="none" paint-order="stroke fill markers" fill-rule="evenodd" d=" M 34.933570861816406 56.819578766822815 C 34.63751220703125 56.819578766822815 34.33916473388672 56.75518488883972 34.060272216796875 56.625566244125366 C 33.33677673339844 56.28656363487244 32.87420654296875 55.559120535850525 32.87420654296875 54.760221004486084 C 32.87420654296875 54.760221004486084 32.87420654296875 25.235004782676697 32.87420654296875 25.235004782676697 C 32.87420654296875 24.436105251312256 33.3365478515625 23.70824670791626 34.060272216796875 23.369659543037415 C 34.783424377441406 23.0302414894104 35.639556884765625 23.141165137290955 36.25261688232422 23.65257716178894 C 36.25261688232422 23.65257716178894 53.96726989746094 38.415392994880676 53.96726989746094 38.415392994880676 C 54.437049865722656 38.80674159526825 54.7086181640625 39.38628649711609 54.7086181640625 39.99740517139435 C 54.7086181640625 40.609354734420776 54.437278747558594 41.18848419189453 53.96726989746094 41.58024823665619 C 53.96726989746094 41.58024823665619 36.25261688232422 56.34264862537384 36.25261688232422 56.34264862537384 C 35.875648498535156 56.6567245721817 35.40678405761719 56.819578766822815 34.933570861816406 56.819578766822815 Z M 36.99407958984375 29.632898926734924 C 36.99407958984375 29.632898926734924 36.99407958984375 50.362326860427856 36.99407958984375 50.362326860427856 C 36.99407958984375 50.362326860427856 49.43128967285156 39.99740517139435 49.43128967285156 39.99740517139435 C 49.43128967285156 39.99740517139435 36.99407958984375 29.632898926734924 36.99407958984375 29.632898926734924 Z M 39.93681335449219 74.99817824363708 C 34.072174072265625 74.99900913238525 28.173202514648438 73.53581404685974 22.830528259277344 70.52758133411407 C 21.83935546875 69.97005498409271 21.48790740966797 68.71333575248718 22.04637908935547 67.72208547592163 C 22.60370635986328 66.73083519935608 23.86003875732422 66.37895381450653 24.851898193359375 66.93772649765015 C 36.86979675292969 73.70323812961578 52.082427978515625 71.61147570610046 61.84526824951172 61.84520936012268 C 73.89200592041016 49.79815340042114 73.89200592041016 30.197487831115723 61.84526824951172 18.1500164270401 C 49.79841613769531 6.101298689842224 30.1962890625 6.101714134216309 18.150009155273438 18.1500164270401 C 6.103729248046875 30.197487831115723 6.103729248046875 49.79815340042114 18.150009155273438 61.84520936012268 C 18.95452880859375 62.64950966835022 18.95452880859375 63.95442044734955 18.150009155273438 64.75913619995117 C 17.346519470214844 65.56343650817871 16.041893005371094 65.56343650817871 15.237258911132812 64.75913619995117 C 1.5844573974609375 51.10472595691681 1.5844573974609375 28.890084385871887 15.237258911132812 15.236089587211609 C 28.89063262939453 1.584172010421753 51.10407257080078 1.5829256772994995 64.75904846191406 15.236089587211609 C 78.41184997558594 28.890084385871887 78.41184997558594 51.10472595691681 64.75904846191406 64.75913619995117 C 58.033355712890625 71.48434972763062 49.02571105957031 74.99817824363708 39.93681335449219 74.99817824363708 Z"/></g></svg>