<svg version="1.1" xmlns="http://www.w3.org/2000/svg" xmlns:xlink="http://www.w3.org/1999/xlink" width="46" height="46"><defs/><g><path fill="rgb(0,0,0)" stroke="none" paint-order="stroke fill markers" fill-rule="evenodd" d=" M 29.872848510742188 24.373673677444458 C 29.872848510742188 24.373673677444458 16.125518798828125 24.373673677444458 16.125518798828125 24.373673677444458 C 15.366546630859375 24.373673677444458 14.750740051269531 24.98977768421173 14.750740051269531 25.748379111289978 C 14.750740051269531 26.507811427116394 15.366546630859375 27.123499989509583 16.125518798828125 27.123499989509583 C 16.125518798828125 27.123499989509583 29.872848510742188 27.123499989509583 29.872848510742188 27.123499989509583 C 30.632164001464844 27.123499989509583 31.247512817382812 26.507811427116394 31.247512817382812 25.748379111289978 C 31.247512817382812 24.98977768421173 30.632164001464844 24.373673677444458 29.872848510742188 24.373673677444458 Z M 32.62217712402344 16.125856518745422 C 32.62217712402344 16.125856518745422 13.376075744628906 16.125856518745422 13.376075744628906 16.125856518745422 C 12.617103576660156 16.125856518745422 12.001296997070312 16.741129636764526 12.001296997070312 17.500561952590942 C 12.001296997070312 18.25916337966919 12.617103576660156 18.874851942062378 13.376075744628906 18.874851942062378 C 13.376075744628906 18.874851942062378 32.62217712402344 18.874851942062378 32.62217712402344 18.874851942062378 C 33.38160705566406 18.874851942062378 33.99695587158203 18.25916337966919 33.99695587158203 17.500561952590942 C 33.99695587158203 16.741129636764526 33.38160705566406 16.125856518745422 32.62217712402344 16.125856518745422 Z M 22.999298095703125 1.0032658576965332 C 10.852081298828125 1.0032658576965332 1.0034103393554688 9.619582176208496 1.0034103393554688 20.249557375907898 C 1.0034103393554688 26.32460045814514 4.227210998535156 31.73327076435089 9.251625061035156 35.26080894470215 C 9.251625061035156 35.26080894470215 9.251625061035156 44.99508607387543 9.251625061035156 44.99508607387543 C 9.251625061035156 44.99508607387543 18.887435913085938 39.148537397384644 18.887435913085938 39.148537397384644 C 20.22113037109375 39.36830747127533 21.592819213867188 39.49626433849335 22.999298095703125 39.49626433849335 C 35.14811706542969 39.49626433849335 44.99530029296875 30.879117131233215 44.99530029296875 20.249557375907898 C 44.99530029296875 9.619582176208496 35.14811706542969 1.0032658576965332 22.999298095703125 1.0032658576965332 Z M 22.999298095703125 36.74685347080231 C 21.393463134765625 36.74685347080231 19.843017578125 36.559903502464294 18.35265350341797 36.24208855628967 C 18.35265350341797 36.24208855628967 11.880104064941406 40.13272511959076 11.880104064941406 40.13272511959076 C 11.880104064941406 40.13272511959076 11.966850280761719 33.75648486614227 11.966850280761719 33.75648486614227 C 7.005378723144531 30.772347927093506 3.7527389526367188 25.839361429214478 3.7527389526367188 20.249557375907898 C 3.7527389526367188 11.139277696609497 12.369682312011719 3.7526767253875732 22.999298095703125 3.7526767253875732 C 33.628684997558594 3.7526767253875732 42.24585723876953 11.139277696609497 42.24585723876953 20.249557375907898 C 42.24585723876953 29.360252499580383 33.628684997558594 36.74685347080231 22.999298095703125 36.74685347080231 Z"/></g></svg>