<svg version="1.1" xmlns="http://www.w3.org/2000/svg" xmlns:xlink="http://www.w3.org/1999/xlink" width="47" height="47"><defs/><g><path fill="rgb(0,0,0)" stroke="none" paint-order="stroke fill markers" fill-rule="evenodd" d=" M 32.24995422363281 1.9999423027038574 C 31.825607299804688 1.9999423027038574 31.402633666992188 2.026115298271179 30.98229217529297 2.0643361806869507 C 30.827911376953125 2.0784612894058228 30.67627716064453 2.1004798412323 30.523040771484375 2.120836615562439 C 30.26531982421875 2.1519949436187744 30.010231018066406 2.191046714782715 29.755027770996094 2.237576484680176 C 29.567001342773438 2.2724738121032715 29.383094787597656 2.310694694519043 29.20319366455078 2.3518236875534058 C 28.992393493652344 2.4000152349472046 28.782852172851562 2.4561002254486084 28.57342529296875 2.51384699344635 C 28.37464141845703 2.569101095199585 28.177345275878906 2.622693419456482 27.982681274414062 2.6858409643173218 C 27.80541229248047 2.7435877323150635 27.633522033691406 2.813382387161255 27.458885192871094 2.878607153892517 C 26.9996337890625 3.0506011247634888 26.551254272460938 3.2446136474609375 26.11614990234375 3.4614756107330322 C 26.030319213867188 3.503435492515564 25.94025421142578 3.5424872636795044 25.855682373046875 3.5881861448287964 C 25.62737274169922 3.709080457687378 25.407073974609375 3.8432689905166626 25.18425750732422 3.9757957458496094 C 25.06340789794922 4.05016028881073 24.939926147460938 4.119954943656921 24.819076538085938 4.198473930358887 C 24.60358428955078 4.335986018180847 24.397476196289062 4.483468770980835 24.191368103027344 4.631782412528992 C 24.128883361816406 4.677481293678284 24.063079833984375 4.718194842338562 23.999908447265625 4.7643091678619385 C 21.622512817382812 2.9745748043060303 18.734939575195312 1.9999423027038574 15.749977111816406 1.9999423027038574 C 8.167922973632812 1.9999423027038574 1.9999008178710938 8.166383147239685 1.9999008178710938 15.749904751777649 C 1.9999008178710938 28.194540977478027 10.002182006835938 39.45225262641907 23.405845642089844 45.862974762916565 C 23.594444274902344 45.953957080841064 23.797805786132812 45.999655961990356 23.999908447265625 45.999655961990356 C 24.202125549316406 45.999655961990356 24.405487060546875 45.953957080841064 24.594085693359375 45.862974762916565 C 37.99706268310547 39.45225262641907 45.999916076660156 28.194540977478027 45.999916076660156 15.749904751777649 C 45.999916076660156 8.166383147239685 39.831321716308594 1.9999423027038574 32.24995422363281 1.9999423027038574 Z M 23.999908447265625 43.096946120262146 C 11.934402465820312 37.10790002346039 4.749916076660156 26.9270201921463 4.749916076660156 15.749904751777649 C 4.749916076660156 9.684416890144348 9.684722900390625 4.749768614768982 15.749977111816406 4.749768614768982 C 17.9688720703125 4.749768614768982 20.118072509765625 5.434420943260193 21.940200805664062 6.683246731758118 C 19.805076599121094 9.106949210166931 18.49999237060547 12.27512800693512 18.49999237060547 15.749904751777649 C 18.49999237060547 16.508506178855896 19.11431121826172 17.12461018562317 19.875 17.12461018562317 C 20.635574340820312 17.12461018562317 21.249893188476562 16.508506178855896 21.249893188476562 15.749904751777649 C 21.249893188476562 12.476203083992004 22.696197509765625 9.538595914840698 24.97345733642578 7.523275256156921 C 25.18425750732422 7.334663510322571 25.404556274414062 7.157268762588501 25.62737274169922 6.986936569213867 C 25.67841339111328 6.9512083530426025 25.72808074951172 6.911741137504578 25.779006958007812 6.873935699462891 C 25.99793243408203 6.714820504188538 26.22223663330078 6.561936974525452 26.451805114746094 6.4202704429626465 C 26.514976501464844 6.380387783050537 26.578033447265625 6.340920567512512 26.642578125 6.30353057384491 C 26.86402130126953 6.170588374137878 27.090957641601562 6.046370506286621 27.320526123046875 5.930876970291138 C 27.399948120117188 5.890994310379028 27.481773376464844 5.852357983589172 27.562339782714844 5.813721656799316 C 27.78252410888672 5.709860563278198 28.005455017089844 5.610569357872009 28.232276916503906 5.521248817443848 C 28.33172607421875 5.481366157531738 28.433807373046875 5.445222496986389 28.537147521972656 5.408247947692871 C 28.750694274902344 5.331390738487244 28.965499877929688 5.258687973022461 29.18305206298828 5.195540428161621 C 29.31591796875 5.1581504344940186 29.44489288330078 5.124914884567261 29.5777587890625 5.093341112136841 C 29.775169372558594 5.043903231620789 29.969947814941406 4.992803573608398 30.171363830566406 4.9533363580703735 C 30.352523803710938 4.920100808143616 30.536544799804688 4.895589590072632 30.719192504882812 4.86941659450531 C 30.87494659423828 4.845736265182495 31.03070068359375 4.819563269615173 31.1890869140625 4.803360939025879 C 31.538246154785156 4.770540833473206 31.892669677734375 4.749768614768982 32.24995422363281 4.749768614768982 C 38.315208435058594 4.749768614768982 43.249900817871094 9.684416890144348 43.249900817871094 15.749904751777649 C 43.249900817871094 26.9270201921463 36.06610107421875 37.10790002346039 23.999908447265625 43.096946120262146 Z M 32.24995422363281 7.4995949268341064 C 31.489952087402344 7.4995949268341064 30.87494659423828 8.116114377975464 30.87494659423828 8.874715805053711 C 30.87494659423828 9.633317232131958 31.489952087402344 10.249836683273315 32.24995422363281 10.249836683273315 C 35.2833251953125 10.249836683273315 37.74998474121094 12.71632993221283 37.74998474121094 15.749904751777649 C 37.74998474121094 16.508506178855896 38.364990234375 17.12461018562317 39.12499237060547 17.12461018562317 C 39.88488006591797 17.12461018562317 40.5 16.508506178855896 40.5 15.749904751777649 C 40.5 11.199957966804504 36.79932403564453 7.4995949268341064 32.24995422363281 7.4995949268341064 Z"/></g></svg>