<svg version="1.1" xmlns="http://www.w3.org/2000/svg" xmlns:xlink="http://www.w3.org/1999/xlink" width="28" height="28"><defs/><g><path fill="rgb(0,0,0)" stroke="none" paint-order="stroke fill markers" fill-rule="evenodd" d=" M 24.499107360839844 3.49373996257782 C 22.09607696533203 1.0887324810028076 18.158966064453125 1.0887324810028076 15.755592346191406 3.49373996257782 C 15.755592346191406 3.49373996257782 11.034561157226562 8.217342495918274 11.034561157226562 8.217342495918274 C 12.653671264648438 7.756614685058594 14.409194946289062 7.877093553543091 15.943275451660156 8.593319654464722 C 15.943275451660156 8.593319654464722 18.39734649658203 6.137212514877319 18.39734649658203 6.137212514877319 C 19.352012634277344 5.182105898857117 20.902915954589844 5.182105898857117 21.85735321044922 6.137212514877319 C 22.811676025390625 7.091488242149353 22.811676025390625 8.643588423728943 21.85735321044922 9.59911048412323 C 21.85735321044922 9.59911048412323 18.772483825683594 12.686277627944946 18.772483825683594 12.686277627944946 C 18.772483825683594 12.686277627944946 16.744247436523438 14.714892506599426 16.744247436523438 14.714892506599426 C 15.789810180664062 15.670414566993713 14.238792419433594 15.670414566993713 13.284355163574219 14.714892506599426 C 13.284355163574219 14.714892506599426 10.642601013183594 17.35878050327301 10.642601013183594 17.35878050327301 C 11.256118774414062 17.97280728816986 11.971946716308594 18.432704210281372 12.721992492675781 18.723515272140503 C 14.750228881835938 19.52407658100128 17.10210418701172 19.21747863292694 18.874679565429688 17.819092869758606 C 19.045082092285156 17.6828271150589 19.23253631591797 17.529112696647644 19.386001586914062 17.35878050327301 C 19.386001586914062 17.35878050327301 22.57306671142578 14.169829487800598 22.57306671142578 14.169829487800598 C 22.57306671142578 14.169829487800598 24.499107360839844 12.242167592048645 24.499107360839844 12.242167592048645 C 26.919189453125 9.836744666099548 26.919189453125 5.914534330368042 24.499107360839844 3.49373996257782 Z M 11.937843322753906 19.52407658100128 C 11.937843322753906 19.52407658100128 9.585853576660156 21.87839984893799 9.585853576660156 21.87839984893799 C 8.631416320800781 22.83350646495819 7.0803985595703125 22.83350646495819 6.1259613037109375 21.87839984893799 C 5.171409606933594 20.922462344169617 5.171409606933594 19.37160849571228 6.1259613037109375 18.41567099094391 C 6.1259613037109375 18.41567099094391 11.239181518554688 13.300719857215881 11.239181518554688 13.300719857215881 C 12.193504333496094 12.345197796821594 13.744636535644531 12.345197796821594 14.698959350585938 13.300719857215881 C 14.698959350585938 13.300719857215881 17.340713500976562 10.656416416168213 17.340713500976562 10.656416416168213 C 16.727195739746094 10.042389631271362 16.011253356933594 9.582077264785767 15.261550903320312 9.292927980422974 C 13.130889892578125 8.439189791679382 10.625434875488281 8.83095383644104 8.835807800292969 10.434569120407104 C 8.750663757324219 10.503117442131042 8.6654052734375 10.588698983192444 8.597312927246094 10.656416416168213 C 8.597312927246094 10.656416416168213 3.4842071533203125 15.773860216140747 3.4842071533203125 15.773860216140747 C 1.0809478759765625 18.177621364593506 1.0809478759765625 22.116864919662476 3.4842071533203125 24.521456956863403 C 5.887351989746094 26.927295327186584 9.824577331542969 26.927295327186584 12.227607727050781 24.521456956863403 C 12.227607727050781 24.521456956863403 16.84644317626953 19.84895408153534 16.84644317626953 19.84895408153534 C 14.49456787109375 20.394432544708252 13.949028015136719 20.326715111732483 11.937843322753906 19.52407658100128 Z"/></g></svg>