<svg version="1.1" xmlns="http://www.w3.org/2000/svg" xmlns:xlink="http://www.w3.org/1999/xlink" width="29" height="27"><defs/><g><path fill="rgb(0,0,0)" stroke="none" paint-order="stroke fill markers" fill-rule="evenodd" d=" M 12.304145812988281 5.081568360328674 C 11.577789306640625 5.081568360328674 10.988533020019531 5.662775039672852 10.988533020019531 6.37692391872406 C 10.988533020019531 7.094396352767944 11.577789306640625 7.673941254615784 12.304145812988281 7.673941254615784 C 13.911468505859375 7.673941254615784 15.346786499023438 8.55883777141571 16.051742553710938 9.982981085777283 C 16.27959442138672 10.444124341011047 16.74720001220703 10.711255073547363 17.23448944091797 10.711255073547363 C 17.42858123779297 10.711255073547363 17.624732971191406 10.668464303016663 17.81035614013672 10.580805540084839 C 18.463699340820312 10.266729593276978 18.73503875732422 9.490679502487183 18.416549682617188 8.847156167030334 C 17.267677307128906 6.524822115898132 14.924728393554688 5.081568360328674 12.304145812988281 5.081568360328674 Z M 26.456138610839844 22.881282567977905 C 26.456138610839844 22.881282567977905 22.072593688964844 18.563153743743896 22.072593688964844 18.563153743743896 C 23.37012481689453 16.76427960395813 24.140655517578125 14.572395086288452 24.140655517578125 12.202284932136536 C 24.140655517578125 6.128072738647461 19.12493896484375 1.1855310201644897 12.9588623046875 1.1855310201644897 C 6.79278564453125 1.1855310201644897 1.777069091796875 6.128072738647461 1.777069091796875 12.202284932136536 C 1.777069091796875 18.27566623687744 6.79278564453125 23.218207955360413 12.9588623046875 23.218207955360413 C 15.534812927246094 23.218207955360413 17.902137756347656 22.347851991653442 19.794647216796875 20.900859236717224 C 19.794647216796875 20.900859236717224 24.13001251220703 25.171627402305603 24.13001251220703 25.171627402305603 C 24.451248168945312 25.488611459732056 24.87273406982422 25.645649433135986 25.293075561523438 25.645649433135986 C 25.714218139648438 25.645649433135986 26.13501739501953 25.48902690410614 26.456138610839844 25.171627402305603 C 27.09838104248047 24.540151953697205 27.09838104248047 23.514004349708557 26.456138610839844 22.881282567977905 Z M 4.40875244140625 12.202284932136536 C 4.40875244140625 7.557201385498047 8.244926452636719 3.777903914451599 12.959663391113281 3.777903914451599 C 17.674171447753906 3.777903914451599 21.510231018066406 7.557201385498047 21.510231018066406 12.202284932136536 C 21.510231018066406 14.134516716003418 20.840065002441406 15.91344952583313 19.724266052246094 17.33551561832428 C 19.355422973632812 17.80538320541382 18.941146850585938 18.239522576332092 18.4813232421875 18.62380862236023 C 16.990272521972656 19.870557188987732 15.064231872558594 20.627081394195557 12.959663391113281 20.627081394195557 C 8.244583129882812 20.625835061073303 4.40875244140625 16.84695303440094 4.40875244140625 12.202284932136536 Z"/></g></svg>