<?xml version="1.0" encoding="UTF-8" standalone="no"?>
<svg
   xmlns:dc="http://purl.org/dc/elements/1.1/"
   xmlns:cc="http://creativecommons.org/ns#"
   xmlns:rdf="http://www.w3.org/1999/02/22-rdf-syntax-ns#"
   xmlns:svg="http://www.w3.org/2000/svg"
   xmlns="http://www.w3.org/2000/svg"
   id="svg8"
   height="76"
   width="80"
   version="1.1">
  <metadata
     id="metadata12">
    <rdf:RDF>
      <cc:Work
         rdf:about="">
        <dc:format>image/svg+xml</dc:format>
        <dc:type
           rdf:resource="http://purl.org/dc/dcmitype/StillImage" />
        <dc:title></dc:title>
      </cc:Work>
    </rdf:RDF>
  </metadata>
  <defs
     id="defs2" />
  <g
     transform="matrix(0.13671918,0,0,0.13671918,4.999862,2.9998993)"
     id="g932">
    <g
       id="g857">
	<g
   id="g855">
		<path
   d="M 477.607,128.055 C 443.432,68.861 388.25,26.52 322.229,8.83 256.207,-8.862 187.249,0.218 128.055,34.393 68.862,68.57 26.52,123.75 8.83,189.771 -8.86,255.793 0.219,324.752 34.394,383.945 c 34.175,59.194 89.355,101.535 155.377,119.225 22.046,5.908 44.417,8.83 66.644,8.83 44.339,-10e-4 88.101,-11.629 127.529,-34.395 59.193,-34.175 101.535,-89.355 119.225,-155.377 17.692,-66.021 8.613,-134.98 -25.562,-194.173 z m -0.176,187.278 C 461.582,374.479 423.651,423.912 370.621,454.53 317.593,485.146 255.815,493.278 196.669,477.431 137.522,461.582 88.088,423.651 57.472,370.621 26.856,317.593 18.722,255.814 34.571,196.667 50.42,137.521 88.351,88.088 141.381,57.47 176.706,37.075 215.904,26.658 255.63,26.658 c 19.91,0 39.958,2.62 59.705,7.91 59.147,15.849 108.581,53.78 139.197,106.81 30.614,53.029 38.747,114.808 22.899,173.955 z"
   id="path853" />

	</g>

</g>
    <g
       id="g863">
	<g
   id="g861">
		<path
   d="m 210.706,133.118 h -33.12 c -14.694,0 -26.648,11.954 -26.648,26.648 v 192.468 c 0,14.694 11.954,26.648 26.648,26.648 h 33.12 c 14.694,0 26.648,-11.954 26.648,-26.648 V 159.766 c 0,-14.694 -11.954,-26.648 -26.648,-26.648 z m 0,219.116 h -33.12 V 159.766 h 33.12 l 0.017,192.466 c 0,0 -0.005,0.002 -0.017,0.002 z"
   id="path859" />

	</g>

</g>
    <g
       id="g869">
	<g
   id="g867">
		<path
   d="m 334.416,133.118 h -33.12 c -14.694,0 -26.648,11.954 -26.648,26.648 v 192.468 c 0,14.694 11.954,26.648 26.648,26.648 h 33.12 c 14.694,0 26.648,-11.954 26.648,-26.648 V 159.766 c 0,-14.694 -11.955,-26.648 -26.648,-26.648 z m -0.002,219.116 h -33.12 V 159.766 h 33.12 l 0.017,192.466 c 0.001,0 -0.005,0.002 -0.017,0.002 z"
   id="path865" />

	</g>

</g>
    <g
       id="g871">
</g>
    <g
       id="g873">
</g>
    <g
       id="g875">
</g>
    <g
       id="g877">
</g>
    <g
       id="g879">
</g>
    <g
       id="g881">
</g>
    <g
       id="g883">
</g>
    <g
       id="g885">
</g>
    <g
       id="g887">
</g>
    <g
       id="g889">
</g>
    <g
       id="g891">
</g>
    <g
       id="g893">
</g>
    <g
       id="g895">
</g>
    <g
       id="g897">
</g>
    <g
       id="g899">
</g>
  </g>
</svg>
