<svg version="1.1" xmlns="http://www.w3.org/2000/svg" xmlns:xlink="http://www.w3.org/1999/xlink" width="51" height="51"><defs/><g><path fill="rgb(0,0,0)" stroke="none" paint-order="stroke fill markers" fill-rule="evenodd" d=" M 48.66796875 18.469653844833374 C 48.04335021972656 17.847318172454834 47.03936004638672 17.847318172454834 46.41954803466797 18.469653844833374 C 46.41954803466797 18.469653844833374 32.573341369628906 32.31392216682434 32.573341369628906 32.31392216682434 C 32.573341369628906 32.31392216682434 13.105682373046875 40.886616826057434 13.105682373046875 40.886616826057434 C 13.105682373046875 40.886616826057434 10.106643676757812 37.88793933391571 10.106643676757812 37.88793933391571 C 10.106643676757812 37.88793933391571 18.683074951171875 18.422293186187744 18.683074951171875 18.422293186187744 C 18.683074951171875 18.422293186187744 32.52699279785156 4.5755321979522705 32.52699279785156 4.5755321979522705 C 33.14817810058594 3.9548583030700684 33.14817810058594 2.949898362159729 32.52699279785156 2.3271472454071045 C 31.903976440429688 1.7056424617767334 30.89838409423828 1.7056424617767334 30.27857208251953 2.3271472454071045 C 30.27857208251953 2.3271472454071045 16.010879516601562 16.591429829597473 16.010879516601562 16.591429829597473 C 16.010879516601562 16.591429829597473 1.5342178344726562 49.46346592903137 1.5342178344726562 49.46346592903137 C 1.5342178344726562 49.46346592903137 34.401763916015625 34.9852294921875 34.401763916015625 34.9852294921875 C 34.401763916015625 34.9852294921875 48.66796875 20.71720790863037 48.66796875 20.71720790863037 C 49.289154052734375 20.099857568740845 49.289154052734375 19.090327739715576 48.66796875 18.469653844833374 Z M 28.4952392578125 29.46605098247528 C 28.805030822753906 29.77347981929779 29.211181640625 29.93134868144989 29.620079040527344 29.93134868144989 C 30.027603149414062 29.93134868144989 30.433639526367188 29.77347981929779 30.745147705078125 29.46605098247528 C 30.745147705078125 29.46605098247528 44.07671356201172 16.13402557373047 44.07671356201172 16.13402557373047 C 44.699615478515625 15.510443568229675 44.699615478515625 14.505483627319336 44.07671356201172 13.884809732437134 C 43.45381164550781 13.260396838188171 42.44982147216797 13.260396838188171 41.82691955566406 13.884809732437134 C 41.82691955566406 13.884809732437134 28.4952392578125 27.21641969680786 28.4952392578125 27.21641969680786 C 27.87542724609375 27.836262702941895 27.87542724609375 28.843299865722656 28.4952392578125 29.46605098247528 Z M 25.015090942382812 25.98545801639557 C 25.32648468017578 26.293302297592163 25.73412322998047 26.44992482662201 26.139930725097656 26.44992482662201 C 26.549057006835938 26.44992482662201 26.954978942871094 26.293302297592163 27.26488494873047 25.98545801639557 C 27.26488494873047 25.98545801639557 40.598052978515625 12.652601718902588 40.598052978515625 12.652601718902588 C 41.21946716308594 12.030266046524048 41.21946716308594 11.023228883743286 40.598052978515625 10.402970433235168 C 39.973777770996094 9.780219316482544 38.96978759765625 9.780219316482544 38.34814453125 10.402970433235168 C 38.34814453125 10.402970433235168 25.015090942382812 23.734580397605896 25.015090942382812 23.734580397605896 C 24.3936767578125 24.35442340373993 24.3936767578125 25.364368677139282 25.015090942382812 25.98545801639557 Z M 21.534141540527344 22.50237238407135 C 21.8448486328125 22.81354022026062 22.25305938720703 22.968085527420044 22.659210205078125 22.968085527420044 C 23.065017700195312 22.968085527420044 23.473228454589844 22.81354022026062 23.783935546875 22.50237238407135 C 23.783935546875 22.50237238407135 37.11653137207031 9.17242419719696 37.11653137207031 9.17242419719696 C 37.73943328857422 8.547595858573914 37.73943328857422 7.54222047328949 37.11653137207031 6.9223774671554565 C 36.49523162841797 6.298380017280579 35.489524841308594 6.298380017280579 34.86662292480469 6.9223774671554565 C 34.86662292480469 6.9223774671554565 21.534141540527344 20.253156542778015 21.534141540527344 20.253156542778015 C 20.913528442382812 20.873414993286133 20.913528442382812 21.8829448223114 21.534141540527344 22.50237238407135 Z"/></g></svg>