<?xml version="1.0" encoding="UTF-8" standalone="no"?>
<svg
   xmlns:dc="http://purl.org/dc/elements/1.1/"
   xmlns:cc="http://creativecommons.org/ns#"
   xmlns:rdf="http://www.w3.org/1999/02/22-rdf-syntax-ns#"
   xmlns:svg="http://www.w3.org/2000/svg"
   xmlns="http://www.w3.org/2000/svg"
   id="svg8"
   height="76"
   width="80"
   version="1.1">
  <metadata
     id="metadata12">
    <rdf:RDF>
      <cc:Work
         rdf:about="">
        <dc:format>image/svg+xml</dc:format>
        <dc:type
           rdf:resource="http://purl.org/dc/dcmitype/StillImage" />
        <dc:title></dc:title>
      </cc:Work>
    </rdf:RDF>
  </metadata>
  <defs
     id="defs2" />
  <g
     transform="translate(0.00184631,-1.9974312)"
     id="g6">
    <path
       style="fill:#000000;fill-rule:evenodd;stroke:none;paint-order:stroke fill markers"
       id="path4"
       d="m 34.933571,56.819579 c -0.296059,0 -0.594406,-0.06439 -0.873299,-0.194013 -0.723495,-0.339002 -1.186065,-1.066445 -1.186065,-1.865345 0,0 0,-29.525216 0,-29.525216 0,-0.7989 0.462341,-1.526758 1.186065,-1.865345 0.723152,-0.339419 1.579285,-0.228495 2.192345,0.282917 0,0 17.714653,14.762816 17.714653,14.762816 0.46978,0.391349 0.741348,0.970893 0.741348,1.582012 0,0.61195 -0.271339,1.191079 -0.741348,1.582843 0,0 -17.714653,14.762401 -17.714653,14.762401 -0.376969,0.314076 -0.845833,0.47693 -1.319046,0.47693 z m 2.060509,-27.18668 c 0,0 0,20.729428 0,20.729428 0,0 12.43721,-10.364922 12.43721,-10.364922 0,0 -12.43721,-10.364506 -12.43721,-10.364506 z m 2.942733,45.365279 c -5.864639,8.31e-4 -11.76361,-1.462364 -17.106285,-4.470597 -0.991173,-0.557526 -1.342621,-1.814245 -0.784149,-2.805496 0.557327,-0.99125 1.81366,-1.343131 2.805519,-0.784359 12.017899,6.765512 27.23053,4.67375 36.99337,-5.092517 12.046738,-12.047056 12.046738,-31.647721 0,-43.695193 -12.046852,-12.0487173 -31.648979,-12.0483019 -43.695259,0 -12.0462798,12.047472 -12.0462798,31.648137 0,43.695193 0.80452,0.804301 0.80452,2.109211 0,2.913927 -0.80349,0.804301 -2.108116,0.804301 -2.91275,0 -13.6528016,-13.65441 -13.6528016,-35.869052 0,-49.523046 13.653374,-13.651918 35.866814,-13.6531643 49.521789,0 13.652802,13.653994 13.652802,35.868636 0,49.523046 -6.725692,6.725214 -15.733337,10.239042 -24.822235,10.239042 z" />
  </g>
</svg>
