<svg version="1.1" xmlns="http://www.w3.org/2000/svg" xmlns:xlink="http://www.w3.org/1999/xlink" width="24" height="24"><defs/><g><path fill="rgb(0,0,0)" stroke="none" paint-order="stroke fill markers" fill-rule="evenodd" d=" M 15.417076110839844 11.434281826019287 C 15.417076110839844 11.434281826019287 10.644889831542969 6.661241412162781 10.644889831542969 6.661241412162781 C 10.35821533203125 6.374584794044495 9.891868591308594 6.374584794044495 9.604507446289062 6.661241412162781 C 9.317832946777344 6.948728919029236 9.317832946777344 7.415688395500183 9.604507446289062 7.702345013618469 C 9.604507446289062 7.702345013618469 13.85919189453125 11.956910848617554 13.85919189453125 11.956910848617554 C 13.85919189453125 11.956910848617554 9.604507446289062 16.21064579486847 9.604507446289062 16.21064579486847 C 9.317832946777344 16.49771785736084 9.317832946777344 16.96301555633545 9.604507446289062 17.251333951950073 C 9.891868591308594 17.538406014442444 10.35821533203125 17.538406014442444 10.644889831542969 17.251333951950073 C 10.644889831542969 17.251333951950073 15.417076110839844 12.479955315589905 15.417076110839844 12.479955315589905 C 15.562187194824219 12.334965229034424 15.634056091308594 12.14510715007782 15.632682800292969 11.956910848617554 C 15.632682800292969 11.766637325286865 15.562187194824219 11.579271912574768 15.417076110839844 11.434281826019287 Z M 12.012344360351562 1.0257384777069092 C 5.9462890625 1.0257384777069092 1.027618408203125 5.943353533744812 1.027618408203125 12.01050317287445 C 1.027618408203125 18.07599103450775 5.9462890625 22.994852423667908 12.012344360351562 22.994852423667908 C 18.078628540039062 22.994852423667908 22.996612548828125 18.07599103450775 22.996612548828125 12.01050317287445 C 22.996612548828125 5.943353533744812 18.078628540039062 1.0257384777069092 12.012344360351562 1.0257384777069092 Z M 12.012344360351562 21.52293300628662 C 6.767631530761719 21.52293300628662 2.4992141723632812 17.253411173820496 2.4992141723632812 12.01050317287445 C 2.4992141723632812 6.765102505683899 6.767631530761719 2.4972424507141113 12.012344360351562 2.4972424507141113 C 17.25659942626953 2.4972424507141113 21.52490234375 6.765102505683899 21.52490234375 12.01050317287445 C 21.52490234375 17.253411173820496 17.25659942626953 21.52293300628662 12.012344360351562 21.52293300628662 Z"/></g></svg>