<svg version="1.1" xmlns="http://www.w3.org/2000/svg" xmlns:xlink="http://www.w3.org/1999/xlink" width="46" height="47"><defs/><g><path fill="rgb(0,0,0)" stroke="none" paint-order="stroke fill markers" fill-rule="evenodd" d=" M 20.93743896484375 32.249693512916565 C 26.625381469726562 32.249693512916565 31.24993896484375 26.620837688446045 31.24993896484375 19.702857971191406 C 31.24993896484375 12.783631920814514 26.625381469726562 7.156022429466248 20.93743896484375 7.156022429466248 C 18.124366760253906 7.156022429466248 15.497833251953125 8.502062201499939 13.542839050292969 10.94404423236847 C 11.660171508789062 13.297952055931091 10.623565673828125 16.408384084701538 10.62493896484375 19.702857971191406 C 10.62493896484375 26.6220840215683 15.25018310546875 32.249693512916565 20.93743896484375 32.249693512916565 Z M 20.93743896484375 9.905848741531372 C 25.10675048828125 9.905848741531372 28.499923706054688 14.300419330596924 28.499923706054688 19.702857971191406 C 28.499923706054688 25.106127500534058 25.10675048828125 29.49986720085144 20.93743896484375 29.49986720085144 C 16.76812744140625 29.49986720085144 13.374954223632812 25.106127500534058 13.372207641601562 19.702857971191406 C 13.372207641601562 14.300419330596924 16.765380859375 9.905848741531372 20.93743896484375 9.905848741531372 Z M 29.59832763671875 30.874988079071045 C 28.83832550048828 30.874988079071045 28.22332000732422 31.489845752716064 28.22332000732422 32.249693512916565 C 28.22332000732422 33.00995671749115 28.83832550048828 33.62481439113617 29.59832763671875 33.62481439113617 C 34.29944610595703 33.62481439113617 38.124977111816406 37.450226187705994 38.124977111816406 42.15264105796814 C 38.124977111816406 42.75545084476471 37.630821228027344 43.24982964992523 37.023826599121094 43.24982964992523 C 37.023826599121094 43.24982964992523 4.848304748535156 43.24982964992523 4.848304748535156 43.24982964992523 C 4.2434844970703125 43.24982964992523 3.7499008178710938 42.7583589553833 3.7499008178710938 42.15264105796814 C 3.7499008178710938 37.450226187705994 7.5741729736328125 33.62481439113617 12.2738037109375 33.62481439113617 C 13.033920288085938 33.62481439113617 13.648811340332031 33.00995671749115 13.648811340332031 32.249693512916565 C 13.648811340332031 31.489845752716064 13.033920288085938 30.874988079071045 12.2738037109375 30.874988079071045 C 6.057487487792969 30.874988079071045 1 35.93426966667175 1 42.15264105796814 C 1 44.27431547641754 2.7267990112304688 45.999655961990356 4.848304748535156 45.999655961990356 C 4.848304748535156 45.999655961990356 37.023826599121094 45.999655961990356 37.023826599121094 45.999655961990356 C 39.146820068359375 45.999655961990356 40.87499237060547 44.27431547641754 40.87499237060547 42.15264105796814 C 40.87499237060547 35.93426966667175 35.815330505371094 30.874988079071045 29.59832763671875 30.874988079071045 Z M 21.94257354736328 5.628848910331726 C 22.92676544189453 5.045149564743042 23.97618865966797 4.751014947891235 25.062461853027344 4.751014947891235 C 29.231773376464844 4.751014947891235 32.62494659423828 9.146000981330872 32.62494659423828 14.546777844429016 C 32.62494659423828 15.51600956916809 32.517601013183594 16.46613085269928 32.30542755126953 17.375123143196106 C 32.13079071044922 18.114198684692383 32.59004211425781 18.85410511493683 33.328529357910156 19.027345418930054 C 33.434730529785156 19.053518414497375 33.539329528808594 19.063904523849487 33.64404296875 19.063904523849487 C 34.2684326171875 19.063904523849487 34.83251190185547 18.63599681854248 34.98151397705078 18.003690481185913 C 35.24060821533203 16.88863778114319 35.374961853027344 15.726224422454834 35.374961853027344 14.546777844429016 C 35.374961853027344 7.628798127174377 30.750404357910156 1.9999423027038574 25.062461853027344 1.9999423027038574 C 23.498741149902344 1.9999423027038574 21.938453674316406 2.4353280067443848 20.544105529785156 3.260815978050232 C 19.889389038085938 3.6471792459487915 19.67401123046875 4.49136221408844 20.059906005859375 5.144440770149231 C 20.44671630859375 5.7979347705841064 21.29186248779297 6.014796733856201 21.94257354736328 5.628848910331726 Z M 33.99995422363281 25.37492001056671 C 33.239952087402344 25.37492001056671 32.62494659423828 25.98977768421173 32.62494659423828 26.74962544441223 C 32.62494659423828 27.509888648986816 33.239952087402344 28.124746322631836 33.99995422363281 28.124746322631836 C 38.700958251953125 28.124746322631836 42.25 32.0428022146225 42.25 36.74272441864014 C 42.25 36.898516058921814 42.220359802246094 37.05306136608124 42.15592956542969 37.19098889827728 C 41.848426818847656 37.886858224868774 42.16130828857422 38.697805643081665 42.854248046875 39.00648081302643 C 43.034149169921875 39.087077021598816 43.22480773925781 39.1248824596405 43.41283416748047 39.1248824596405 C 43.93914794921875 39.1248824596405 44.441429138183594 38.81869995594025 44.66962432861328 38.30811882019043 C 44.88843536376953 37.81415545940399 44.999900817871094 37.287787437438965 44.999900817871094 36.739816308021545 C 44.999900817871094 30.52726113796234 40.216957092285156 25.37492001056671 33.99995422363281 25.37492001056671 Z"/></g></svg>